<svg width="305" height="8" viewBox="0 0 305 8" fill="none" xmlns="http://www.w3.org/2000/svg">
<path d="M3.56563 4.32786C3.85258 4.32786 4.08519 4.09525 4.08519 3.8083C4.08519 3.52136 3.85258 3.28874 3.56563 3.28874C3.27869 3.28874 3.04608 3.52136 3.04608 3.8083C3.04608 4.09525 3.27869 4.32786 3.56563 4.32786Z" fill="#F1F2F0"/>
<path d="M22.2619 4.32786C22.5489 4.32786 22.7815 4.09525 22.7815 3.8083C22.7815 3.52136 22.5489 3.28874 22.2619 3.28874C21.975 3.28874 21.7424 3.52136 21.7424 3.8083C21.7424 4.09525 21.975 4.32786 22.2619 4.32786Z" fill="#F1F2F0"/>
<path d="M16.0296 3.28869C15.743 3.28869 15.5103 3.52138 15.5103 3.80824C15.5103 4.09511 15.743 4.3278 16.0296 4.3278C16.3164 4.3278 16.5492 4.09511 16.5492 3.80824C16.5492 3.52138 16.3164 3.28869 16.0296 3.28869Z" fill="#F1F2F0"/>
<path d="M9.79767 4.32786C10.0846 4.32786 10.3172 4.09525 10.3172 3.8083C10.3172 3.52136 10.0846 3.28874 9.79767 3.28874C9.51073 3.28874 9.27812 3.52136 9.27812 3.8083C9.27812 4.09525 9.51073 4.32786 9.79767 4.32786Z" fill="#F1F2F0"/>
<path d="M28.4939 4.32786C28.7808 4.32786 29.0134 4.09525 29.0134 3.8083C29.0134 3.52136 28.7808 3.28874 28.4939 3.28874C28.2069 3.28874 27.9743 3.52136 27.9743 3.8083C27.9743 4.09525 28.2069 4.32786 28.4939 4.32786Z" fill="#F1F2F0"/>
<path d="M0.519269 0C0.232405 0 0 0.232117 0 0.518981C0 0.805845 0.232405 1.03854 0.519269 1.03854C0.80606 1.03854 1.03854 0.805845 1.03854 0.518981C1.03854 0.232117 0.80606 0 0.519269 0Z" fill="#F1F2F0"/>
<path d="M6.7512 0C6.46433 0 6.23193 0.232117 6.23193 0.518981C6.23193 0.805845 6.46433 1.03854 6.7512 1.03854C7.03799 1.03854 7.27075 0.805845 7.27075 0.518981C7.27075 0.232117 7.03799 0 6.7512 0Z" fill="#F1F2F0"/>
<path d="M12.9835 0C12.6967 0 12.4642 0.232117 12.4642 0.518981C12.4642 0.805845 12.6967 1.03854 12.9835 1.03854C13.2703 1.03854 13.5028 0.805845 13.5028 0.518981C13.5028 0.232117 13.2703 0 12.9835 0Z" fill="#F1F2F0"/>
<path d="M25.4478 0C25.1609 0 24.9282 0.232117 24.9282 0.518981C24.9282 0.805845 25.1609 1.03854 25.4478 1.03854C25.7343 1.03854 25.967 0.805845 25.967 0.518981C25.967 0.232117 25.7343 0 25.4478 0Z" fill="#F1F2F0"/>
<path d="M19.2154 0C18.9286 0 18.6962 0.232117 18.6962 0.518981C18.6962 0.805845 18.9286 1.03854 19.2154 1.03854C19.5022 1.03854 19.7347 0.805845 19.7347 0.518981C19.7347 0.232117 19.5022 0 19.2154 0Z" fill="#F1F2F0"/>
<path d="M31.6797 0C31.3928 0 31.1604 0.232117 31.1604 0.518981C31.1604 0.805845 31.3928 1.03854 31.6797 1.03854C31.9665 1.03854 32.199 0.805845 32.199 0.518981C32.199 0.232117 31.9665 0 31.6797 0Z" fill="#F1F2F0"/>
<path d="M31.6797 6.57856C31.3928 6.57856 31.1604 6.81068 31.1604 7.09754C31.1604 7.38498 31.3928 7.6171 31.6797 7.6171C31.9665 7.6171 32.199 7.38498 32.199 7.09754C32.199 6.81068 31.9665 6.57856 31.6797 6.57856Z" fill="#F1F2F0"/>
<path d="M0.519269 6.57856C0.232405 6.57856 0 6.81068 0 7.09754C0 7.38498 0.232405 7.6171 0.519269 7.6171C0.80606 7.6171 1.03854 7.38498 1.03854 7.09754C1.03854 6.81068 0.80606 6.57856 0.519269 6.57856Z" fill="#F1F2F0"/>
<path d="M19.2154 6.57856C18.9286 6.57856 18.6962 6.81068 18.6962 7.09754C18.6962 7.38498 18.9286 7.6171 19.2154 7.6171C19.5022 7.6171 19.7347 7.38498 19.7347 7.09754C19.7347 6.81068 19.5022 6.57856 19.2154 6.57856Z" fill="#F1F2F0"/>
<path d="M12.9835 6.57856C12.6967 6.57856 12.4642 6.81068 12.4642 7.09754C12.4642 7.38498 12.6967 7.6171 12.9835 7.6171C13.2703 7.6171 13.5028 7.38498 13.5028 7.09754C13.5028 6.81068 13.2703 6.57856 12.9835 6.57856Z" fill="#F1F2F0"/>
<path d="M25.4478 6.57856C25.1609 6.57856 24.9282 6.81068 24.9282 7.09754C24.9282 7.38498 25.1609 7.6171 25.4478 7.6171C25.7343 7.6171 25.967 7.38498 25.967 7.09754C25.967 6.81068 25.7343 6.57856 25.4478 6.57856Z" fill="#F1F2F0"/>
<path d="M6.7512 6.57856C6.46433 6.57856 6.23193 6.81068 6.23193 7.09754C6.23193 7.38498 6.46433 7.6171 6.7512 7.6171C7.03799 7.6171 7.27075 7.38498 7.27075 7.09754C7.27082 6.81068 7.03799 6.57856 6.7512 6.57856Z" fill="#F1F2F0"/>
<path d="M105.566 4.32786C105.853 4.32786 106.085 4.09525 106.085 3.8083C106.085 3.52136 105.853 3.28874 105.566 3.28874C105.279 3.28874 105.046 3.52136 105.046 3.8083C105.046 4.09525 105.279 4.32786 105.566 4.32786Z" fill="#F1F2F0"/>
<path d="M124.262 4.32786C124.549 4.32786 124.781 4.09525 124.781 3.8083C124.781 3.52136 124.549 3.28874 124.262 3.28874C123.975 3.28874 123.742 3.52136 123.742 3.8083C123.742 4.09525 123.975 4.32786 124.262 4.32786Z" fill="#F1F2F0"/>
<path d="M118.03 3.28869C117.743 3.28869 117.51 3.52138 117.51 3.80824C117.51 4.09511 117.743 4.3278 118.03 4.3278C118.316 4.3278 118.549 4.09511 118.549 3.80824C118.549 3.52138 118.316 3.28869 118.03 3.28869Z" fill="#F1F2F0"/>
<path d="M111.798 4.32786C112.085 4.32786 112.317 4.09525 112.317 3.8083C112.317 3.52136 112.085 3.28874 111.798 3.28874C111.511 3.28874 111.278 3.52136 111.278 3.8083C111.278 4.09525 111.511 4.32786 111.798 4.32786Z" fill="#F1F2F0"/>
<path d="M130.494 4.32786C130.781 4.32786 131.013 4.09525 131.013 3.8083C131.013 3.52136 130.781 3.28874 130.494 3.28874C130.207 3.28874 129.974 3.52136 129.974 3.8083C129.974 4.09525 130.207 4.32786 130.494 4.32786Z" fill="#F1F2F0"/>
<path d="M102.519 0C102.232 0 102 0.232117 102 0.518981C102 0.805845 102.232 1.03854 102.519 1.03854C102.806 1.03854 103.039 0.805845 103.039 0.518981C103.039 0.232117 102.806 0 102.519 0Z" fill="#F1F2F0"/>
<path d="M108.751 0C108.464 0 108.232 0.232117 108.232 0.518981C108.232 0.805845 108.464 1.03854 108.751 1.03854C109.038 1.03854 109.271 0.805845 109.271 0.518981C109.271 0.232117 109.038 0 108.751 0Z" fill="#F1F2F0"/>
<path d="M114.984 0C114.697 0 114.464 0.232117 114.464 0.518981C114.464 0.805845 114.697 1.03854 114.984 1.03854C115.27 1.03854 115.503 0.805845 115.503 0.518981C115.503 0.232117 115.27 0 114.984 0Z" fill="#F1F2F0"/>
<path d="M127.448 0C127.161 0 126.928 0.232117 126.928 0.518981C126.928 0.805845 127.161 1.03854 127.448 1.03854C127.734 1.03854 127.967 0.805845 127.967 0.518981C127.967 0.232117 127.734 0 127.448 0Z" fill="#F1F2F0"/>
<path d="M121.215 0C120.929 0 120.696 0.232117 120.696 0.518981C120.696 0.805845 120.929 1.03854 121.215 1.03854C121.502 1.03854 121.735 0.805845 121.735 0.518981C121.735 0.232117 121.502 0 121.215 0Z" fill="#F1F2F0"/>
<path d="M133.68 0C133.393 0 133.16 0.232117 133.16 0.518981C133.16 0.805845 133.393 1.03854 133.68 1.03854C133.966 1.03854 134.199 0.805845 134.199 0.518981C134.199 0.232117 133.966 0 133.68 0Z" fill="#F1F2F0"/>
<path d="M133.68 6.57856C133.393 6.57856 133.16 6.81068 133.16 7.09754C133.16 7.38498 133.393 7.6171 133.68 7.6171C133.966 7.6171 134.199 7.38498 134.199 7.09754C134.199 6.81068 133.966 6.57856 133.68 6.57856Z" fill="#F1F2F0"/>
<path d="M102.519 6.57856C102.232 6.57856 102 6.81068 102 7.09754C102 7.38498 102.232 7.6171 102.519 7.6171C102.806 7.6171 103.039 7.38498 103.039 7.09754C103.039 6.81068 102.806 6.57856 102.519 6.57856Z" fill="#F1F2F0"/>
<path d="M121.215 6.57856C120.929 6.57856 120.696 6.81068 120.696 7.09754C120.696 7.38498 120.929 7.6171 121.215 7.6171C121.502 7.6171 121.735 7.38498 121.735 7.09754C121.735 6.81068 121.502 6.57856 121.215 6.57856Z" fill="#F1F2F0"/>
<path d="M114.984 6.57856C114.697 6.57856 114.464 6.81068 114.464 7.09754C114.464 7.38498 114.697 7.6171 114.984 7.6171C115.27 7.6171 115.503 7.38498 115.503 7.09754C115.503 6.81068 115.27 6.57856 114.984 6.57856Z" fill="#F1F2F0"/>
<path d="M127.448 6.57856C127.161 6.57856 126.928 6.81068 126.928 7.09754C126.928 7.38498 127.161 7.6171 127.448 7.6171C127.734 7.6171 127.967 7.38498 127.967 7.09754C127.967 6.81068 127.734 6.57856 127.448 6.57856Z" fill="#F1F2F0"/>
<path d="M108.751 6.57856C108.464 6.57856 108.232 6.81068 108.232 7.09754C108.232 7.38498 108.464 7.6171 108.751 7.6171C109.038 7.6171 109.271 7.38498 109.271 7.09754C109.271 6.81068 109.038 6.57856 108.751 6.57856Z" fill="#F1F2F0"/>
<path d="M207.566 4.32786C207.853 4.32786 208.085 4.09525 208.085 3.8083C208.085 3.52136 207.853 3.28874 207.566 3.28874C207.279 3.28874 207.046 3.52136 207.046 3.8083C207.046 4.09525 207.279 4.32786 207.566 4.32786Z" fill="#F1F2F0"/>
<path d="M226.262 4.32786C226.549 4.32786 226.781 4.09525 226.781 3.8083C226.781 3.52136 226.549 3.28874 226.262 3.28874C225.975 3.28874 225.742 3.52136 225.742 3.8083C225.742 4.09525 225.975 4.32786 226.262 4.32786Z" fill="#F1F2F0"/>
<path d="M220.03 3.28869C219.743 3.28869 219.51 3.52138 219.51 3.80824C219.51 4.09511 219.743 4.3278 220.03 4.3278C220.316 4.3278 220.549 4.09511 220.549 3.80824C220.549 3.52138 220.316 3.28869 220.03 3.28869Z" fill="#F1F2F0"/>
<path d="M213.798 4.32786C214.085 4.32786 214.317 4.09525 214.317 3.8083C214.317 3.52136 214.085 3.28874 213.798 3.28874C213.511 3.28874 213.278 3.52136 213.278 3.8083C213.278 4.09525 213.511 4.32786 213.798 4.32786Z" fill="#F1F2F0"/>
<path d="M232.494 4.32786C232.781 4.32786 233.013 4.09525 233.013 3.8083C233.013 3.52136 232.781 3.28874 232.494 3.28874C232.207 3.28874 231.974 3.52136 231.974 3.8083C231.974 4.09525 232.207 4.32786 232.494 4.32786Z" fill="#F1F2F0"/>
<path d="M204.519 0C204.232 0 204 0.232117 204 0.518981C204 0.805845 204.232 1.03854 204.519 1.03854C204.806 1.03854 205.039 0.805845 205.039 0.518981C205.039 0.232117 204.806 0 204.519 0Z" fill="#F1F2F0"/>
<path d="M210.751 0C210.464 0 210.232 0.232117 210.232 0.518981C210.232 0.805845 210.464 1.03854 210.751 1.03854C211.038 1.03854 211.271 0.805845 211.271 0.518981C211.271 0.232117 211.038 0 210.751 0Z" fill="#F1F2F0"/>
<path d="M216.984 0C216.697 0 216.464 0.232117 216.464 0.518981C216.464 0.805845 216.697 1.03854 216.984 1.03854C217.27 1.03854 217.503 0.805845 217.503 0.518981C217.503 0.232117 217.27 0 216.984 0Z" fill="#F1F2F0"/>
<path d="M229.448 0C229.161 0 228.928 0.232117 228.928 0.518981C228.928 0.805845 229.161 1.03854 229.448 1.03854C229.734 1.03854 229.967 0.805845 229.967 0.518981C229.967 0.232117 229.734 0 229.448 0Z" fill="#F1F2F0"/>
<path d="M223.215 0C222.929 0 222.696 0.232117 222.696 0.518981C222.696 0.805845 222.929 1.03854 223.215 1.03854C223.502 1.03854 223.735 0.805845 223.735 0.518981C223.735 0.232117 223.502 0 223.215 0Z" fill="#F1F2F0"/>
<path d="M235.68 0C235.393 0 235.16 0.232117 235.16 0.518981C235.16 0.805845 235.393 1.03854 235.68 1.03854C235.966 1.03854 236.199 0.805845 236.199 0.518981C236.199 0.232117 235.966 0 235.68 0Z" fill="#F1F2F0"/>
<path d="M235.68 6.57856C235.393 6.57856 235.16 6.81068 235.16 7.09754C235.16 7.38498 235.393 7.6171 235.68 7.6171C235.966 7.6171 236.199 7.38498 236.199 7.09754C236.199 6.81068 235.966 6.57856 235.68 6.57856Z" fill="#F1F2F0"/>
<path d="M204.519 6.57856C204.232 6.57856 204 6.81068 204 7.09754C204 7.38498 204.232 7.6171 204.519 7.6171C204.806 7.6171 205.039 7.38498 205.039 7.09754C205.039 6.81068 204.806 6.57856 204.519 6.57856Z" fill="#F1F2F0"/>
<path d="M223.215 6.57856C222.929 6.57856 222.696 6.81068 222.696 7.09754C222.696 7.38498 222.929 7.6171 223.215 7.6171C223.502 7.6171 223.735 7.38498 223.735 7.09754C223.735 6.81068 223.502 6.57856 223.215 6.57856Z" fill="#F1F2F0"/>
<path d="M216.984 6.57856C216.697 6.57856 216.464 6.81068 216.464 7.09754C216.464 7.38498 216.697 7.6171 216.984 7.6171C217.27 7.6171 217.503 7.38498 217.503 7.09754C217.503 6.81068 217.27 6.57856 216.984 6.57856Z" fill="#F1F2F0"/>
<path d="M229.448 6.57856C229.161 6.57856 228.928 6.81068 228.928 7.09754C228.928 7.38498 229.161 7.6171 229.448 7.6171C229.734 7.6171 229.967 7.38498 229.967 7.09754C229.967 6.81068 229.734 6.57856 229.448 6.57856Z" fill="#F1F2F0"/>
<path d="M210.751 6.57856C210.464 6.57856 210.232 6.81068 210.232 7.09754C210.232 7.38498 210.464 7.6171 210.751 7.6171C211.038 7.6171 211.271 7.38498 211.271 7.09754C211.271 6.81068 211.038 6.57856 210.751 6.57856Z" fill="#F1F2F0"/>
<path d="M37.5656 4.32786C37.8526 4.32786 38.0852 4.09525 38.0852 3.8083C38.0852 3.52136 37.8526 3.28874 37.5656 3.28874C37.2787 3.28874 37.0461 3.52136 37.0461 3.8083C37.0461 4.09525 37.2787 4.32786 37.5656 4.32786Z" fill="#F1F2F0"/>
<path d="M56.2619 4.32786C56.5489 4.32786 56.7815 4.09525 56.7815 3.8083C56.7815 3.52136 56.5489 3.28874 56.2619 3.28874C55.975 3.28874 55.7424 3.52136 55.7424 3.8083C55.7424 4.09525 55.975 4.32786 56.2619 4.32786Z" fill="#F1F2F0"/>
<path d="M50.0296 3.28869C49.743 3.28869 49.5103 3.52138 49.5103 3.80824C49.5103 4.09511 49.743 4.3278 50.0296 4.3278C50.3164 4.3278 50.5492 4.09511 50.5492 3.80824C50.5492 3.52138 50.3164 3.28869 50.0296 3.28869Z" fill="#F1F2F0"/>
<path d="M43.7977 4.32786C44.0846 4.32786 44.3172 4.09525 44.3172 3.8083C44.3172 3.52136 44.0846 3.28874 43.7977 3.28874C43.5107 3.28874 43.2781 3.52136 43.2781 3.8083C43.2781 4.09525 43.5107 4.32786 43.7977 4.32786Z" fill="#F1F2F0"/>
<path d="M62.4939 4.32786C62.7808 4.32786 63.0134 4.09525 63.0134 3.8083C63.0134 3.52136 62.7808 3.28874 62.4939 3.28874C62.2069 3.28874 61.9743 3.52136 61.9743 3.8083C61.9743 4.09525 62.2069 4.32786 62.4939 4.32786Z" fill="#F1F2F0"/>
<path d="M34.5193 0C34.2324 0 34 0.232117 34 0.518981C34 0.805845 34.2324 1.03854 34.5193 1.03854C34.8061 1.03854 35.0385 0.805845 35.0385 0.518981C35.0385 0.232117 34.8061 0 34.5193 0Z" fill="#F1F2F0"/>
<path d="M40.7512 0C40.4643 0 40.2319 0.232117 40.2319 0.518981C40.2319 0.805845 40.4643 1.03854 40.7512 1.03854C41.038 1.03854 41.2708 0.805845 41.2708 0.518981C41.2708 0.232117 41.038 0 40.7512 0Z" fill="#F1F2F0"/>
<path d="M46.9835 0C46.6967 0 46.4642 0.232117 46.4642 0.518981C46.4642 0.805845 46.6967 1.03854 46.9835 1.03854C47.2703 1.03854 47.5028 0.805845 47.5028 0.518981C47.5028 0.232117 47.2703 0 46.9835 0Z" fill="#F1F2F0"/>
<path d="M59.4478 0C59.1609 0 58.9282 0.232117 58.9282 0.518981C58.9282 0.805845 59.1609 1.03854 59.4478 1.03854C59.7343 1.03854 59.967 0.805845 59.967 0.518981C59.967 0.232117 59.7343 0 59.4478 0Z" fill="#F1F2F0"/>
<path d="M53.2154 0C52.9286 0 52.6962 0.232117 52.6962 0.518981C52.6962 0.805845 52.9286 1.03854 53.2154 1.03854C53.5022 1.03854 53.7347 0.805845 53.7347 0.518981C53.7347 0.232117 53.5022 0 53.2154 0Z" fill="#F1F2F0"/>
<path d="M65.6797 0C65.3928 0 65.1604 0.232117 65.1604 0.518981C65.1604 0.805845 65.3928 1.03854 65.6797 1.03854C65.9665 1.03854 66.199 0.805845 66.199 0.518981C66.199 0.232117 65.9665 0 65.6797 0Z" fill="#F1F2F0"/>
<path d="M65.6797 6.57856C65.3928 6.57856 65.1604 6.81068 65.1604 7.09754C65.1604 7.38498 65.3928 7.6171 65.6797 7.6171C65.9665 7.6171 66.199 7.38498 66.199 7.09754C66.199 6.81068 65.9665 6.57856 65.6797 6.57856Z" fill="#F1F2F0"/>
<path d="M34.5193 6.57856C34.2324 6.57856 34 6.81068 34 7.09754C34 7.38498 34.2324 7.6171 34.5193 7.6171C34.8061 7.6171 35.0385 7.38498 35.0385 7.09754C35.0385 6.81068 34.8061 6.57856 34.5193 6.57856Z" fill="#F1F2F0"/>
<path d="M53.2154 6.57856C52.9286 6.57856 52.6962 6.81068 52.6962 7.09754C52.6962 7.38498 52.9286 7.6171 53.2154 7.6171C53.5022 7.6171 53.7347 7.38498 53.7347 7.09754C53.7347 6.81068 53.5022 6.57856 53.2154 6.57856Z" fill="#F1F2F0"/>
<path d="M46.9835 6.57856C46.6967 6.57856 46.4642 6.81068 46.4642 7.09754C46.4642 7.38498 46.6967 7.6171 46.9835 7.6171C47.2703 7.6171 47.5028 7.38498 47.5028 7.09754C47.5028 6.81068 47.2703 6.57856 46.9835 6.57856Z" fill="#F1F2F0"/>
<path d="M59.4478 6.57856C59.1609 6.57856 58.9282 6.81068 58.9282 7.09754C58.9282 7.38498 59.1609 7.6171 59.4478 7.6171C59.7343 7.6171 59.967 7.38498 59.967 7.09754C59.967 6.81068 59.7343 6.57856 59.4478 6.57856Z" fill="#F1F2F0"/>
<path d="M40.7512 6.57856C40.4643 6.57856 40.2319 6.81068 40.2319 7.09754C40.2319 7.38498 40.4643 7.6171 40.7512 7.6171C41.038 7.6171 41.2708 7.38498 41.2708 7.09754C41.2708 6.81068 41.038 6.57856 40.7512 6.57856Z" fill="#F1F2F0"/>
<path d="M139.566 4.32786C139.853 4.32786 140.085 4.09525 140.085 3.8083C140.085 3.52136 139.853 3.28874 139.566 3.28874C139.279 3.28874 139.046 3.52136 139.046 3.8083C139.046 4.09525 139.279 4.32786 139.566 4.32786Z" fill="#F1F2F0"/>
<path d="M158.262 4.32786C158.549 4.32786 158.781 4.09525 158.781 3.8083C158.781 3.52136 158.549 3.28874 158.262 3.28874C157.975 3.28874 157.742 3.52136 157.742 3.8083C157.742 4.09525 157.975 4.32786 158.262 4.32786Z" fill="#F1F2F0"/>
<path d="M152.03 3.28869C151.743 3.28869 151.51 3.52138 151.51 3.80824C151.51 4.09511 151.743 4.3278 152.03 4.3278C152.316 4.3278 152.549 4.09511 152.549 3.80824C152.549 3.52138 152.316 3.28869 152.03 3.28869Z" fill="#F1F2F0"/>
<path d="M145.798 4.32786C146.085 4.32786 146.317 4.09525 146.317 3.8083C146.317 3.52136 146.085 3.28874 145.798 3.28874C145.511 3.28874 145.278 3.52136 145.278 3.8083C145.278 4.09525 145.511 4.32786 145.798 4.32786Z" fill="#F1F2F0"/>
<path d="M164.494 4.32786C164.781 4.32786 165.013 4.09525 165.013 3.8083C165.013 3.52136 164.781 3.28874 164.494 3.28874C164.207 3.28874 163.974 3.52136 163.974 3.8083C163.974 4.09525 164.207 4.32786 164.494 4.32786Z" fill="#F1F2F0"/>
<path d="M136.519 0C136.232 0 136 0.232117 136 0.518981C136 0.805845 136.232 1.03854 136.519 1.03854C136.806 1.03854 137.039 0.805845 137.039 0.518981C137.039 0.232117 136.806 0 136.519 0Z" fill="#F1F2F0"/>
<path d="M142.751 0C142.464 0 142.232 0.232117 142.232 0.518981C142.232 0.805845 142.464 1.03854 142.751 1.03854C143.038 1.03854 143.271 0.805845 143.271 0.518981C143.271 0.232117 143.038 0 142.751 0Z" fill="#F1F2F0"/>
<path d="M148.984 0C148.697 0 148.464 0.232117 148.464 0.518981C148.464 0.805845 148.697 1.03854 148.984 1.03854C149.27 1.03854 149.503 0.805845 149.503 0.518981C149.503 0.232117 149.27 0 148.984 0Z" fill="#F1F2F0"/>
<path d="M161.448 0C161.161 0 160.928 0.232117 160.928 0.518981C160.928 0.805845 161.161 1.03854 161.448 1.03854C161.734 1.03854 161.967 0.805845 161.967 0.518981C161.967 0.232117 161.734 0 161.448 0Z" fill="#F1F2F0"/>
<path d="M155.215 0C154.929 0 154.696 0.232117 154.696 0.518981C154.696 0.805845 154.929 1.03854 155.215 1.03854C155.502 1.03854 155.735 0.805845 155.735 0.518981C155.735 0.232117 155.502 0 155.215 0Z" fill="#F1F2F0"/>
<path d="M167.68 0C167.393 0 167.16 0.232117 167.16 0.518981C167.16 0.805845 167.393 1.03854 167.68 1.03854C167.966 1.03854 168.199 0.805845 168.199 0.518981C168.199 0.232117 167.966 0 167.68 0Z" fill="#F1F2F0"/>
<path d="M167.68 6.57856C167.393 6.57856 167.16 6.81068 167.16 7.09754C167.16 7.38498 167.393 7.6171 167.68 7.6171C167.966 7.6171 168.199 7.38498 168.199 7.09754C168.199 6.81068 167.966 6.57856 167.68 6.57856Z" fill="#F1F2F0"/>
<path d="M136.519 6.57856C136.232 6.57856 136 6.81068 136 7.09754C136 7.38498 136.232 7.6171 136.519 7.6171C136.806 7.6171 137.039 7.38498 137.039 7.09754C137.039 6.81068 136.806 6.57856 136.519 6.57856Z" fill="#F1F2F0"/>
<path d="M155.215 6.57856C154.929 6.57856 154.696 6.81068 154.696 7.09754C154.696 7.38498 154.929 7.6171 155.215 7.6171C155.502 7.6171 155.735 7.38498 155.735 7.09754C155.735 6.81068 155.502 6.57856 155.215 6.57856Z" fill="#F1F2F0"/>
<path d="M148.984 6.57856C148.697 6.57856 148.464 6.81068 148.464 7.09754C148.464 7.38498 148.697 7.6171 148.984 7.6171C149.27 7.6171 149.503 7.38498 149.503 7.09754C149.503 6.81068 149.27 6.57856 148.984 6.57856Z" fill="#F1F2F0"/>
<path d="M161.448 6.57856C161.161 6.57856 160.928 6.81068 160.928 7.09754C160.928 7.38498 161.161 7.6171 161.448 7.6171C161.734 7.6171 161.967 7.38498 161.967 7.09754C161.967 6.81068 161.734 6.57856 161.448 6.57856Z" fill="#F1F2F0"/>
<path d="M142.751 6.57856C142.464 6.57856 142.232 6.81068 142.232 7.09754C142.232 7.38498 142.464 7.6171 142.751 7.6171C143.038 7.6171 143.271 7.38498 143.271 7.09754C143.271 6.81068 143.038 6.57856 142.751 6.57856Z" fill="#F1F2F0"/>
<path d="M241.566 4.32786C241.853 4.32786 242.085 4.09525 242.085 3.8083C242.085 3.52136 241.853 3.28874 241.566 3.28874C241.279 3.28874 241.046 3.52136 241.046 3.8083C241.046 4.09525 241.279 4.32786 241.566 4.32786Z" fill="#F1F2F0"/>
<path d="M260.262 4.32786C260.549 4.32786 260.781 4.09525 260.781 3.8083C260.781 3.52136 260.549 3.28874 260.262 3.28874C259.975 3.28874 259.742 3.52136 259.742 3.8083C259.742 4.09525 259.975 4.32786 260.262 4.32786Z" fill="#F1F2F0"/>
<path d="M254.03 3.28869C253.743 3.28869 253.51 3.52138 253.51 3.80824C253.51 4.09511 253.743 4.3278 254.03 4.3278C254.316 4.3278 254.549 4.09511 254.549 3.80824C254.549 3.52138 254.316 3.28869 254.03 3.28869Z" fill="#F1F2F0"/>
<path d="M247.798 4.32786C248.085 4.32786 248.317 4.09525 248.317 3.8083C248.317 3.52136 248.085 3.28874 247.798 3.28874C247.511 3.28874 247.278 3.52136 247.278 3.8083C247.278 4.09525 247.511 4.32786 247.798 4.32786Z" fill="#F1F2F0"/>
<path d="M266.494 4.32786C266.781 4.32786 267.013 4.09525 267.013 3.8083C267.013 3.52136 266.781 3.28874 266.494 3.28874C266.207 3.28874 265.974 3.52136 265.974 3.8083C265.974 4.09525 266.207 4.32786 266.494 4.32786Z" fill="#F1F2F0"/>
<path d="M238.519 0C238.232 0 238 0.232117 238 0.518981C238 0.805845 238.232 1.03854 238.519 1.03854C238.806 1.03854 239.039 0.805845 239.039 0.518981C239.039 0.232117 238.806 0 238.519 0Z" fill="#F1F2F0"/>
<path d="M244.751 0C244.464 0 244.232 0.232117 244.232 0.518981C244.232 0.805845 244.464 1.03854 244.751 1.03854C245.038 1.03854 245.271 0.805845 245.271 0.518981C245.271 0.232117 245.038 0 244.751 0Z" fill="#F1F2F0"/>
<path d="M250.984 0C250.697 0 250.464 0.232117 250.464 0.518981C250.464 0.805845 250.697 1.03854 250.984 1.03854C251.27 1.03854 251.503 0.805845 251.503 0.518981C251.503 0.232117 251.27 0 250.984 0Z" fill="#F1F2F0"/>
<path d="M263.448 0C263.161 0 262.928 0.232117 262.928 0.518981C262.928 0.805845 263.161 1.03854 263.448 1.03854C263.734 1.03854 263.967 0.805845 263.967 0.518981C263.967 0.232117 263.734 0 263.448 0Z" fill="#F1F2F0"/>
<path d="M257.215 0C256.929 0 256.696 0.232117 256.696 0.518981C256.696 0.805845 256.929 1.03854 257.215 1.03854C257.502 1.03854 257.735 0.805845 257.735 0.518981C257.735 0.232117 257.502 0 257.215 0Z" fill="#F1F2F0"/>
<path d="M269.68 0C269.393 0 269.16 0.232117 269.16 0.518981C269.16 0.805845 269.393 1.03854 269.68 1.03854C269.966 1.03854 270.199 0.805845 270.199 0.518981C270.199 0.232117 269.966 0 269.68 0Z" fill="#F1F2F0"/>
<path d="M269.68 6.57856C269.393 6.57856 269.16 6.81068 269.16 7.09754C269.16 7.38498 269.393 7.6171 269.68 7.6171C269.966 7.6171 270.199 7.38498 270.199 7.09754C270.199 6.81068 269.966 6.57856 269.68 6.57856Z" fill="#F1F2F0"/>
<path d="M238.519 6.57856C238.232 6.57856 238 6.81068 238 7.09754C238 7.38498 238.232 7.6171 238.519 7.6171C238.806 7.6171 239.039 7.38498 239.039 7.09754C239.039 6.81068 238.806 6.57856 238.519 6.57856Z" fill="#F1F2F0"/>
<path d="M257.215 6.57856C256.929 6.57856 256.696 6.81068 256.696 7.09754C256.696 7.38498 256.929 7.6171 257.215 7.6171C257.502 7.6171 257.735 7.38498 257.735 7.09754C257.735 6.81068 257.502 6.57856 257.215 6.57856Z" fill="#F1F2F0"/>
<path d="M250.984 6.57856C250.697 6.57856 250.464 6.81068 250.464 7.09754C250.464 7.38498 250.697 7.6171 250.984 7.6171C251.27 7.6171 251.503 7.38498 251.503 7.09754C251.503 6.81068 251.27 6.57856 250.984 6.57856Z" fill="#F1F2F0"/>
<path d="M263.448 6.57856C263.161 6.57856 262.928 6.81068 262.928 7.09754C262.928 7.38498 263.161 7.6171 263.448 7.6171C263.734 7.6171 263.967 7.38498 263.967 7.09754C263.967 6.81068 263.734 6.57856 263.448 6.57856Z" fill="#F1F2F0"/>
<path d="M244.751 6.57856C244.464 6.57856 244.232 6.81068 244.232 7.09754C244.232 7.38498 244.464 7.6171 244.751 7.6171C245.038 7.6171 245.271 7.38498 245.271 7.09754C245.271 6.81068 245.038 6.57856 244.751 6.57856Z" fill="#F1F2F0"/>
<path d="M71.5656 4.32786C71.8526 4.32786 72.0852 4.09525 72.0852 3.8083C72.0852 3.52136 71.8526 3.28874 71.5656 3.28874C71.2787 3.28874 71.0461 3.52136 71.0461 3.8083C71.0461 4.09525 71.2787 4.32786 71.5656 4.32786Z" fill="#F1F2F0"/>
<path d="M90.2619 4.32786C90.5489 4.32786 90.7815 4.09525 90.7815 3.8083C90.7815 3.52136 90.5489 3.28874 90.2619 3.28874C89.975 3.28874 89.7424 3.52136 89.7424 3.8083C89.7424 4.09525 89.975 4.32786 90.2619 4.32786Z" fill="#F1F2F0"/>
<path d="M84.0296 3.28869C83.743 3.28869 83.5103 3.52138 83.5103 3.80824C83.5103 4.09511 83.743 4.3278 84.0296 4.3278C84.3164 4.3278 84.5491 4.09511 84.5491 3.80824C84.5491 3.52138 84.3164 3.28869 84.0296 3.28869Z" fill="#F1F2F0"/>
<path d="M77.7977 4.32786C78.0846 4.32786 78.3172 4.09525 78.3172 3.8083C78.3172 3.52136 78.0846 3.28874 77.7977 3.28874C77.5107 3.28874 77.2781 3.52136 77.2781 3.8083C77.2781 4.09525 77.5107 4.32786 77.7977 4.32786Z" fill="#F1F2F0"/>
<path d="M96.4939 4.32786C96.7808 4.32786 97.0134 4.09525 97.0134 3.8083C97.0134 3.52136 96.7808 3.28874 96.4939 3.28874C96.2069 3.28874 95.9743 3.52136 95.9743 3.8083C95.9743 4.09525 96.2069 4.32786 96.4939 4.32786Z" fill="#F1F2F0"/>
<path d="M68.5193 0C68.2324 0 68 0.232117 68 0.518981C68 0.805845 68.2324 1.03854 68.5193 1.03854C68.8061 1.03854 69.0385 0.805845 69.0385 0.518981C69.0385 0.232117 68.8061 0 68.5193 0Z" fill="#F1F2F0"/>
<path d="M74.7512 0C74.4643 0 74.2319 0.232117 74.2319 0.518981C74.2319 0.805845 74.4643 1.03854 74.7512 1.03854C75.038 1.03854 75.2708 0.805845 75.2708 0.518981C75.2708 0.232117 75.038 0 74.7512 0Z" fill="#F1F2F0"/>
<path d="M80.9835 0C80.6967 0 80.4642 0.232117 80.4642 0.518981C80.4642 0.805845 80.6967 1.03854 80.9835 1.03854C81.2703 1.03854 81.5028 0.805845 81.5028 0.518981C81.5028 0.232117 81.2703 0 80.9835 0Z" fill="#F1F2F0"/>
<path d="M93.4478 0C93.1609 0 92.9282 0.232117 92.9282 0.518981C92.9282 0.805845 93.1609 1.03854 93.4478 1.03854C93.7343 1.03854 93.967 0.805845 93.967 0.518981C93.967 0.232117 93.7343 0 93.4478 0Z" fill="#F1F2F0"/>
<path d="M87.2154 0C86.9286 0 86.6962 0.232117 86.6962 0.518981C86.6962 0.805845 86.9286 1.03854 87.2154 1.03854C87.5022 1.03854 87.7347 0.805845 87.7347 0.518981C87.7347 0.232117 87.5022 0 87.2154 0Z" fill="#F1F2F0"/>
<path d="M99.6797 0C99.3928 0 99.1604 0.232117 99.1604 0.518981C99.1604 0.805845 99.3928 1.03854 99.6797 1.03854C99.9665 1.03854 100.199 0.805845 100.199 0.518981C100.199 0.232117 99.9665 0 99.6797 0Z" fill="#F1F2F0"/>
<path d="M99.6797 6.57856C99.3928 6.57856 99.1604 6.81068 99.1604 7.09754C99.1604 7.38498 99.3928 7.6171 99.6797 7.6171C99.9665 7.6171 100.199 7.38498 100.199 7.09754C100.199 6.81068 99.9665 6.57856 99.6797 6.57856Z" fill="#F1F2F0"/>
<path d="M68.5193 6.57856C68.2324 6.57856 68 6.81068 68 7.09754C68 7.38498 68.2324 7.6171 68.5193 7.6171C68.8061 7.6171 69.0385 7.38498 69.0385 7.09754C69.0385 6.81068 68.8061 6.57856 68.5193 6.57856Z" fill="#F1F2F0"/>
<path d="M87.2154 6.57856C86.9286 6.57856 86.6962 6.81068 86.6962 7.09754C86.6962 7.38498 86.9286 7.6171 87.2154 7.6171C87.5022 7.6171 87.7347 7.38498 87.7347 7.09754C87.7347 6.81068 87.5022 6.57856 87.2154 6.57856Z" fill="#F1F2F0"/>
<path d="M80.9835 6.57856C80.6967 6.57856 80.4642 6.81068 80.4642 7.09754C80.4642 7.38498 80.6967 7.6171 80.9835 7.6171C81.2703 7.6171 81.5028 7.38498 81.5028 7.09754C81.5028 6.81068 81.2703 6.57856 80.9835 6.57856Z" fill="#F1F2F0"/>
<path d="M93.4478 6.57856C93.1609 6.57856 92.9282 6.81068 92.9282 7.09754C92.9282 7.38498 93.1609 7.6171 93.4478 7.6171C93.7343 7.6171 93.967 7.38498 93.967 7.09754C93.967 6.81068 93.7343 6.57856 93.4478 6.57856Z" fill="#F1F2F0"/>
<path d="M74.7512 6.57856C74.4643 6.57856 74.2319 6.81068 74.2319 7.09754C74.2319 7.38498 74.4643 7.6171 74.7512 7.6171C75.038 7.6171 75.2708 7.38498 75.2708 7.09754C75.2708 6.81068 75.038 6.57856 74.7512 6.57856Z" fill="#F1F2F0"/>
<path d="M173.566 4.32786C173.853 4.32786 174.085 4.09525 174.085 3.8083C174.085 3.52136 173.853 3.28874 173.566 3.28874C173.279 3.28874 173.046 3.52136 173.046 3.8083C173.046 4.09525 173.279 4.32786 173.566 4.32786Z" fill="#F1F2F0"/>
<path d="M192.262 4.32786C192.549 4.32786 192.781 4.09525 192.781 3.8083C192.781 3.52136 192.549 3.28874 192.262 3.28874C191.975 3.28874 191.742 3.52136 191.742 3.8083C191.742 4.09525 191.975 4.32786 192.262 4.32786Z" fill="#F1F2F0"/>
<path d="M186.03 3.28869C185.743 3.28869 185.51 3.52138 185.51 3.80824C185.51 4.09511 185.743 4.3278 186.03 4.3278C186.316 4.3278 186.549 4.09511 186.549 3.80824C186.549 3.52138 186.316 3.28869 186.03 3.28869Z" fill="#F1F2F0"/>
<path d="M179.798 4.32786C180.085 4.32786 180.317 4.09525 180.317 3.8083C180.317 3.52136 180.085 3.28874 179.798 3.28874C179.511 3.28874 179.278 3.52136 179.278 3.8083C179.278 4.09525 179.511 4.32786 179.798 4.32786Z" fill="#F1F2F0"/>
<path d="M198.494 4.32786C198.781 4.32786 199.013 4.09525 199.013 3.8083C199.013 3.52136 198.781 3.28874 198.494 3.28874C198.207 3.28874 197.974 3.52136 197.974 3.8083C197.974 4.09525 198.207 4.32786 198.494 4.32786Z" fill="#F1F2F0"/>
<path d="M170.519 0C170.232 0 170 0.232117 170 0.518981C170 0.805845 170.232 1.03854 170.519 1.03854C170.806 1.03854 171.039 0.805845 171.039 0.518981C171.039 0.232117 170.806 0 170.519 0Z" fill="#F1F2F0"/>
<path d="M176.751 0C176.464 0 176.232 0.232117 176.232 0.518981C176.232 0.805845 176.464 1.03854 176.751 1.03854C177.038 1.03854 177.271 0.805845 177.271 0.518981C177.271 0.232117 177.038 0 176.751 0Z" fill="#F1F2F0"/>
<path d="M182.984 0C182.697 0 182.464 0.232117 182.464 0.518981C182.464 0.805845 182.697 1.03854 182.984 1.03854C183.27 1.03854 183.503 0.805845 183.503 0.518981C183.503 0.232117 183.27 0 182.984 0Z" fill="#F1F2F0"/>
<path d="M195.448 0C195.161 0 194.928 0.232117 194.928 0.518981C194.928 0.805845 195.161 1.03854 195.448 1.03854C195.734 1.03854 195.967 0.805845 195.967 0.518981C195.967 0.232117 195.734 0 195.448 0Z" fill="#F1F2F0"/>
<path d="M189.215 0C188.929 0 188.696 0.232117 188.696 0.518981C188.696 0.805845 188.929 1.03854 189.215 1.03854C189.502 1.03854 189.735 0.805845 189.735 0.518981C189.735 0.232117 189.502 0 189.215 0Z" fill="#F1F2F0"/>
<path d="M201.68 0C201.393 0 201.16 0.232117 201.16 0.518981C201.16 0.805845 201.393 1.03854 201.68 1.03854C201.966 1.03854 202.199 0.805845 202.199 0.518981C202.199 0.232117 201.966 0 201.68 0Z" fill="#F1F2F0"/>
<path d="M201.68 6.57856C201.393 6.57856 201.16 6.81068 201.16 7.09754C201.16 7.38498 201.393 7.6171 201.68 7.6171C201.966 7.6171 202.199 7.38498 202.199 7.09754C202.199 6.81068 201.966 6.57856 201.68 6.57856Z" fill="#F1F2F0"/>
<path d="M170.519 6.57856C170.232 6.57856 170 6.81068 170 7.09754C170 7.38498 170.232 7.6171 170.519 7.6171C170.806 7.6171 171.039 7.38498 171.039 7.09754C171.039 6.81068 170.806 6.57856 170.519 6.57856Z" fill="#F1F2F0"/>
<path d="M189.215 6.57856C188.929 6.57856 188.696 6.81068 188.696 7.09754C188.696 7.38498 188.929 7.6171 189.215 7.6171C189.502 7.6171 189.735 7.38498 189.735 7.09754C189.735 6.81068 189.502 6.57856 189.215 6.57856Z" fill="#F1F2F0"/>
<path d="M182.984 6.57856C182.697 6.57856 182.464 6.81068 182.464 7.09754C182.464 7.38498 182.697 7.6171 182.984 7.6171C183.27 7.6171 183.503 7.38498 183.503 7.09754C183.503 6.81068 183.27 6.57856 182.984 6.57856Z" fill="#F1F2F0"/>
<path d="M195.448 6.57856C195.161 6.57856 194.928 6.81068 194.928 7.09754C194.928 7.38498 195.161 7.6171 195.448 7.6171C195.734 7.6171 195.967 7.38498 195.967 7.09754C195.967 6.81068 195.734 6.57856 195.448 6.57856Z" fill="#F1F2F0"/>
<path d="M176.751 6.57856C176.464 6.57856 176.232 6.81068 176.232 7.09754C176.232 7.38498 176.464 7.6171 176.751 7.6171C177.038 7.6171 177.271 7.38498 177.271 7.09754C177.271 6.81068 177.038 6.57856 176.751 6.57856Z" fill="#F1F2F0"/>
<path d="M275.566 4.32786C275.853 4.32786 276.085 4.09525 276.085 3.8083C276.085 3.52136 275.853 3.28874 275.566 3.28874C275.279 3.28874 275.046 3.52136 275.046 3.8083C275.046 4.09525 275.279 4.32786 275.566 4.32786Z" fill="#F1F2F0"/>
<path d="M294.262 4.32786C294.549 4.32786 294.781 4.09525 294.781 3.8083C294.781 3.52136 294.549 3.28874 294.262 3.28874C293.975 3.28874 293.742 3.52136 293.742 3.8083C293.742 4.09525 293.975 4.32786 294.262 4.32786Z" fill="#F1F2F0"/>
<path d="M288.03 3.28869C287.743 3.28869 287.51 3.52138 287.51 3.80824C287.51 4.09511 287.743 4.3278 288.03 4.3278C288.316 4.3278 288.549 4.09511 288.549 3.80824C288.549 3.52138 288.316 3.28869 288.03 3.28869Z" fill="#F1F2F0"/>
<path d="M281.798 4.32786C282.085 4.32786 282.317 4.09525 282.317 3.8083C282.317 3.52136 282.085 3.28874 281.798 3.28874C281.511 3.28874 281.278 3.52136 281.278 3.8083C281.278 4.09525 281.511 4.32786 281.798 4.32786Z" fill="#F1F2F0"/>
<path d="M300.494 4.32786C300.781 4.32786 301.013 4.09525 301.013 3.8083C301.013 3.52136 300.781 3.28874 300.494 3.28874C300.207 3.28874 299.974 3.52136 299.974 3.8083C299.974 4.09525 300.207 4.32786 300.494 4.32786Z" fill="#F1F2F0"/>
<path d="M272.519 0C272.232 0 272 0.232117 272 0.518981C272 0.805845 272.232 1.03854 272.519 1.03854C272.806 1.03854 273.039 0.805845 273.039 0.518981C273.039 0.232117 272.806 0 272.519 0Z" fill="#F1F2F0"/>
<path d="M278.751 0C278.464 0 278.232 0.232117 278.232 0.518981C278.232 0.805845 278.464 1.03854 278.751 1.03854C279.038 1.03854 279.271 0.805845 279.271 0.518981C279.271 0.232117 279.038 0 278.751 0Z" fill="#F1F2F0"/>
<path d="M284.984 0C284.697 0 284.464 0.232117 284.464 0.518981C284.464 0.805845 284.697 1.03854 284.984 1.03854C285.27 1.03854 285.503 0.805845 285.503 0.518981C285.503 0.232117 285.27 0 284.984 0Z" fill="#F1F2F0"/>
<path d="M297.448 0C297.161 0 296.928 0.232117 296.928 0.518981C296.928 0.805845 297.161 1.03854 297.448 1.03854C297.734 1.03854 297.967 0.805845 297.967 0.518981C297.967 0.232117 297.734 0 297.448 0Z" fill="#F1F2F0"/>
<path d="M291.215 0C290.929 0 290.696 0.232117 290.696 0.518981C290.696 0.805845 290.929 1.03854 291.215 1.03854C291.502 1.03854 291.735 0.805845 291.735 0.518981C291.735 0.232117 291.502 0 291.215 0Z" fill="#F1F2F0"/>
<path d="M303.68 0C303.393 0 303.16 0.232117 303.16 0.518981C303.16 0.805845 303.393 1.03854 303.68 1.03854C303.966 1.03854 304.199 0.805845 304.199 0.518981C304.199 0.232117 303.966 0 303.68 0Z" fill="#F1F2F0"/>
<path d="M303.68 6.57856C303.393 6.57856 303.16 6.81068 303.16 7.09754C303.16 7.38498 303.393 7.6171 303.68 7.6171C303.966 7.6171 304.199 7.38498 304.199 7.09754C304.199 6.81068 303.966 6.57856 303.68 6.57856Z" fill="#F1F2F0"/>
<path d="M272.519 6.57856C272.232 6.57856 272 6.81068 272 7.09754C272 7.38498 272.232 7.6171 272.519 7.6171C272.806 7.6171 273.039 7.38498 273.039 7.09754C273.039 6.81068 272.806 6.57856 272.519 6.57856Z" fill="#F1F2F0"/>
<path d="M291.215 6.57856C290.929 6.57856 290.696 6.81068 290.696 7.09754C290.696 7.38498 290.929 7.6171 291.215 7.6171C291.502 7.6171 291.735 7.38498 291.735 7.09754C291.735 6.81068 291.502 6.57856 291.215 6.57856Z" fill="#F1F2F0"/>
<path d="M284.984 6.57856C284.697 6.57856 284.464 6.81068 284.464 7.09754C284.464 7.38498 284.697 7.6171 284.984 7.6171C285.27 7.6171 285.503 7.38498 285.503 7.09754C285.503 6.81068 285.27 6.57856 284.984 6.57856Z" fill="#F1F2F0"/>
<path d="M297.448 6.57856C297.161 6.57856 296.928 6.81068 296.928 7.09754C296.928 7.38498 297.161 7.6171 297.448 7.6171C297.734 7.6171 297.967 7.38498 297.967 7.09754C297.967 6.81068 297.734 6.57856 297.448 6.57856Z" fill="#F1F2F0"/>
<path d="M278.751 6.57856C278.464 6.57856 278.232 6.81068 278.232 7.09754C278.232 7.38498 278.464 7.6171 278.751 7.6171C279.038 7.6171 279.271 7.38498 279.271 7.09754C279.271 6.81068 279.038 6.57856 278.751 6.57856Z" fill="#F1F2F0"/>
</svg>
