<svg width="854" height="559" viewBox="0 0 854 559" fill="none" xmlns="http://www.w3.org/2000/svg">
<rect y="1" width="854" height="558" fill="#BE2D2D" fill-opacity="0.05"/>
<line x1="102.5" y1="276" x2="102.5" y2="559" stroke="#493C3C" stroke-opacity="0.19"/>
<line x1="196.5" y1="369" x2="196.5" y2="559" stroke="#493C3C" stroke-opacity="0.19"/>
<line x1="102.5" y1="1" x2="102.5" y2="181" stroke="#493C3C" stroke-opacity="0.19"/>
<line x1="102" y1="87.5" y2="87.5" stroke="#493C3C" stroke-opacity="0.19"/>
<line x1="290" y1="87.5" x2="196" y2="87.5" stroke="#493C3C" stroke-opacity="0.19"/>
<line x1="196" y1="181.5" x2="102" y2="181.5" stroke="#493C3C" stroke-opacity="0.19"/>
<line x1="98" y1="280.5" x2="4" y2="280.5" stroke="#493C3C" stroke-opacity="0.19"/>
<line x1="384" y1="181.5" x2="290" y2="181.5" stroke="#493C3C" stroke-opacity="0.19"/>
<line x1="478" y1="87.5" x2="384" y2="87.5" stroke="#493C3C" stroke-opacity="0.19"/>
<line x1="572" y1="181.5" x2="478" y2="181.5" stroke="#493C3C" stroke-opacity="0.19"/>
<line x1="666" y1="181.5" x2="572" y2="181.5" stroke="#493C3C" stroke-opacity="0.19"/>
<line x1="666" y1="90.5" x2="572" y2="90.5" stroke="#493C3C" stroke-opacity="0.19"/>
<line x1="854" y1="370.5" x2="760" y2="370.5" stroke="#493C3C" stroke-opacity="0.19"/>
<line x1="854" y1="275.5" x2="196" y2="275.5" stroke="#493C3C" stroke-opacity="0.19"/>
<line x1="102" y1="369.5" y2="369.5" stroke="#493C3C" stroke-opacity="0.19"/>
<line x1="290" y1="369.5" x2="196" y2="369.5" stroke="#493C3C" stroke-opacity="0.19"/>
<line x1="392" y1="464.5" x2="290" y2="464.5" stroke="#493C3C" stroke-opacity="0.19"/>
<line x1="572" y1="464.5" x2="470" y2="464.5" stroke="#493C3C" stroke-opacity="0.19"/>
<line x1="760" y1="464.5" x2="666" y2="464.5" stroke="#493C3C" stroke-opacity="0.19"/>
<line x1="760" y1="370.5" x2="666" y2="370.5" stroke="#493C3C" stroke-opacity="0.19"/>
<line x1="674" y1="369.5" x2="572" y2="369.5" stroke="#493C3C" stroke-opacity="0.19"/>
<line x1="580" y1="369.5" x2="478" y2="369.5" stroke="#493C3C" stroke-opacity="0.19"/>
<line x1="192" y1="464.5" x2="102" y2="464.5" stroke="#493C3C" stroke-opacity="0.19"/>
<line x1="290.5" y1="-2.04155e-08" x2="290.5" y2="464" stroke="#493C3C" stroke-opacity="0.19"/>
<line x1="384.5" y1="87" x2="384.5" y2="369" stroke="#493C3C" stroke-opacity="0.19"/>
<line x1="478.5" y1="87" x2="478.5" y2="181" stroke="#493C3C" stroke-opacity="0.19"/>
<line x1="478.5" y1="276" x2="478.5" y2="370" stroke="#493C3C" stroke-opacity="0.19"/>
<line x1="572.5" y1="181" x2="572.5" y2="275" stroke="#493C3C" stroke-opacity="0.19"/>
<line x1="572.5" y1="370" x2="572.5" y2="464" stroke="#493C3C" stroke-opacity="0.19"/>
<line x1="666.5" y1="465" x2="666.5" y2="559" stroke="#493C3C" stroke-opacity="0.19"/>
<line x1="666.5" y1="181" x2="666.5" y2="275" stroke="#493C3C" stroke-opacity="0.19"/>
<line x1="666.5" y1="275" x2="666.5" y2="369" stroke="#493C3C" stroke-opacity="0.19"/>
<line x1="572.5" y1="-2.04155e-08" x2="572.5" y2="181" stroke="#493C3C" stroke-opacity="0.19"/>
<line x1="666.5" y1="1" x2="666.5" y2="90" stroke="#493C3C" stroke-opacity="0.19"/>
<line x1="760.5" y1="-2.28217e-08" x2="760.5" y2="181" stroke="#493C3C" stroke-opacity="0.19"/>
<line x1="760.5" y1="370" x2="760.5" y2="559" stroke="#493C3C" stroke-opacity="0.19"/>
</svg>
